<mxfile host="app.diagrams.net" modified="2021-09-13T13:11:41.408Z" agent="5.0 (Macintosh; Intel Mac OS X 10_15_7) AppleWebKit/537.36 (KHTML, like Gecko) Chrome/92.0.4515.159 Safari/537.36" etag="ZGUiW5pQEQayyJKvzXFc" version="14.8.4" type="github">
  <diagram id="OsDTiLr7Ex48Qg980niO" name="第 1 页">
    <mxGraphModel dx="1240" dy="811" grid="1" gridSize="10" guides="1" tooltips="1" connect="1" arrows="1" fold="1" page="1" pageScale="1" pageWidth="827" pageHeight="1169" math="0" shadow="0">
      <root>
        <mxCell id="0" />
        <mxCell id="1" parent="0" />
        <mxCell id="4cnwyPSWlkKU3P2vWiqX-3" style="edgeStyle=orthogonalEdgeStyle;rounded=0;orthogonalLoop=1;jettySize=auto;html=1;exitX=0.5;exitY=1;exitDx=0;exitDy=0;entryX=0.5;entryY=0;entryDx=0;entryDy=0;" edge="1" parent="1" source="4cnwyPSWlkKU3P2vWiqX-1" target="4cnwyPSWlkKU3P2vWiqX-2">
          <mxGeometry relative="1" as="geometry">
            <mxPoint x="401" y="230" as="targetPoint" />
          </mxGeometry>
        </mxCell>
        <mxCell id="4cnwyPSWlkKU3P2vWiqX-1" value="electron启动" style="ellipse;whiteSpace=wrap;html=1;" vertex="1" parent="1">
          <mxGeometry x="356" y="160" width="90" height="50" as="geometry" />
        </mxCell>
        <mxCell id="4cnwyPSWlkKU3P2vWiqX-9" style="edgeStyle=orthogonalEdgeStyle;rounded=0;orthogonalLoop=1;jettySize=auto;html=1;exitX=0.5;exitY=1;exitDx=0;exitDy=0;entryX=0.5;entryY=0;entryDx=0;entryDy=0;" edge="1" parent="1" source="4cnwyPSWlkKU3P2vWiqX-2" target="4cnwyPSWlkKU3P2vWiqX-5">
          <mxGeometry relative="1" as="geometry" />
        </mxCell>
        <mxCell id="4cnwyPSWlkKU3P2vWiqX-2" value="请求服务端latest.json更新文件信息" style="rounded=1;whiteSpace=wrap;html=1;" vertex="1" parent="1">
          <mxGeometry x="338.5" y="240" width="125" height="50" as="geometry" />
        </mxCell>
        <mxCell id="4cnwyPSWlkKU3P2vWiqX-7" style="edgeStyle=orthogonalEdgeStyle;rounded=0;orthogonalLoop=1;jettySize=auto;html=1;exitX=0;exitY=0.5;exitDx=0;exitDy=0;entryX=1;entryY=0.5;entryDx=0;entryDy=0;" edge="1" parent="1" source="4cnwyPSWlkKU3P2vWiqX-5" target="4cnwyPSWlkKU3P2vWiqX-6">
          <mxGeometry relative="1" as="geometry" />
        </mxCell>
        <mxCell id="4cnwyPSWlkKU3P2vWiqX-8" value="是" style="edgeLabel;html=1;align=center;verticalAlign=middle;resizable=0;points=[];" vertex="1" connectable="0" parent="4cnwyPSWlkKU3P2vWiqX-7">
          <mxGeometry x="-0.28" y="1" relative="1" as="geometry">
            <mxPoint x="1" as="offset" />
          </mxGeometry>
        </mxCell>
        <mxCell id="4cnwyPSWlkKU3P2vWiqX-12" style="edgeStyle=orthogonalEdgeStyle;rounded=0;orthogonalLoop=1;jettySize=auto;html=1;exitX=0.5;exitY=1;exitDx=0;exitDy=0;" edge="1" parent="1" source="4cnwyPSWlkKU3P2vWiqX-5" target="4cnwyPSWlkKU3P2vWiqX-11">
          <mxGeometry relative="1" as="geometry" />
        </mxCell>
        <mxCell id="4cnwyPSWlkKU3P2vWiqX-13" value="否" style="edgeLabel;html=1;align=center;verticalAlign=middle;resizable=0;points=[];" vertex="1" connectable="0" parent="4cnwyPSWlkKU3P2vWiqX-12">
          <mxGeometry x="-0.2699" y="3" relative="1" as="geometry">
            <mxPoint x="-2" y="3" as="offset" />
          </mxGeometry>
        </mxCell>
        <mxCell id="4cnwyPSWlkKU3P2vWiqX-5" value="本地版本&amp;gt;=远程版本" style="rhombus;whiteSpace=wrap;html=1;" vertex="1" parent="1">
          <mxGeometry x="303.5" y="320" width="195" height="60" as="geometry" />
        </mxCell>
        <mxCell id="4cnwyPSWlkKU3P2vWiqX-35" style="edgeStyle=orthogonalEdgeStyle;rounded=0;orthogonalLoop=1;jettySize=auto;html=1;exitX=0;exitY=0.5;exitDx=0;exitDy=0;entryX=0;entryY=0.5;entryDx=0;entryDy=0;" edge="1" parent="1" source="4cnwyPSWlkKU3P2vWiqX-6" target="4cnwyPSWlkKU3P2vWiqX-34">
          <mxGeometry relative="1" as="geometry" />
        </mxCell>
        <mxCell id="4cnwyPSWlkKU3P2vWiqX-6" value="无需更新，正常启动" style="rounded=1;whiteSpace=wrap;html=1;" vertex="1" parent="1">
          <mxGeometry x="120" y="325" width="130" height="50" as="geometry" />
        </mxCell>
        <mxCell id="4cnwyPSWlkKU3P2vWiqX-14" style="edgeStyle=orthogonalEdgeStyle;rounded=0;orthogonalLoop=1;jettySize=auto;html=1;exitX=0;exitY=0.5;exitDx=0;exitDy=0;entryX=1;entryY=0.5;entryDx=0;entryDy=0;" edge="1" parent="1" source="4cnwyPSWlkKU3P2vWiqX-11" target="4cnwyPSWlkKU3P2vWiqX-6">
          <mxGeometry relative="1" as="geometry">
            <Array as="points">
              <mxPoint x="270" y="450" />
              <mxPoint x="270" y="350" />
            </Array>
          </mxGeometry>
        </mxCell>
        <mxCell id="4cnwyPSWlkKU3P2vWiqX-15" value="否" style="edgeLabel;html=1;align=center;verticalAlign=middle;resizable=0;points=[];" vertex="1" connectable="0" parent="4cnwyPSWlkKU3P2vWiqX-14">
          <mxGeometry x="-0.8485" y="-1" relative="1" as="geometry">
            <mxPoint as="offset" />
          </mxGeometry>
        </mxCell>
        <mxCell id="4cnwyPSWlkKU3P2vWiqX-21" value="" style="edgeStyle=orthogonalEdgeStyle;rounded=0;orthogonalLoop=1;jettySize=auto;html=1;" edge="1" parent="1" source="4cnwyPSWlkKU3P2vWiqX-11" target="4cnwyPSWlkKU3P2vWiqX-17">
          <mxGeometry relative="1" as="geometry" />
        </mxCell>
        <mxCell id="4cnwyPSWlkKU3P2vWiqX-23" value="是" style="edgeLabel;html=1;align=center;verticalAlign=middle;resizable=0;points=[];" vertex="1" connectable="0" parent="4cnwyPSWlkKU3P2vWiqX-21">
          <mxGeometry x="-0.2676" relative="1" as="geometry">
            <mxPoint y="3" as="offset" />
          </mxGeometry>
        </mxCell>
        <mxCell id="4cnwyPSWlkKU3P2vWiqX-11" value="用户loginId是否在更新组中&lt;br&gt;（分桶）" style="rhombus;whiteSpace=wrap;html=1;" vertex="1" parent="1">
          <mxGeometry x="289.75" y="410" width="222.5" height="80" as="geometry" />
        </mxCell>
        <mxCell id="4cnwyPSWlkKU3P2vWiqX-20" value="否" style="edgeStyle=orthogonalEdgeStyle;rounded=0;orthogonalLoop=1;jettySize=auto;html=1;" edge="1" parent="1" source="4cnwyPSWlkKU3P2vWiqX-17" target="4cnwyPSWlkKU3P2vWiqX-19">
          <mxGeometry relative="1" as="geometry" />
        </mxCell>
        <mxCell id="4cnwyPSWlkKU3P2vWiqX-25" value="" style="edgeStyle=orthogonalEdgeStyle;rounded=0;orthogonalLoop=1;jettySize=auto;html=1;" edge="1" parent="1" source="4cnwyPSWlkKU3P2vWiqX-17" target="4cnwyPSWlkKU3P2vWiqX-24">
          <mxGeometry relative="1" as="geometry" />
        </mxCell>
        <mxCell id="4cnwyPSWlkKU3P2vWiqX-26" value="是" style="edgeLabel;html=1;align=center;verticalAlign=middle;resizable=0;points=[];" vertex="1" connectable="0" parent="4cnwyPSWlkKU3P2vWiqX-25">
          <mxGeometry x="0.24" y="-1" relative="1" as="geometry">
            <mxPoint as="offset" />
          </mxGeometry>
        </mxCell>
        <mxCell id="4cnwyPSWlkKU3P2vWiqX-17" value="当前版本号功能位是否更新" style="rhombus;whiteSpace=wrap;html=1;" vertex="1" parent="1">
          <mxGeometry x="286" y="520" width="230" height="80" as="geometry" />
        </mxCell>
        <mxCell id="4cnwyPSWlkKU3P2vWiqX-27" style="edgeStyle=orthogonalEdgeStyle;rounded=0;orthogonalLoop=1;jettySize=auto;html=1;exitX=0.5;exitY=1;exitDx=0;exitDy=0;entryX=0;entryY=0.5;entryDx=0;entryDy=0;" edge="1" parent="1" source="4cnwyPSWlkKU3P2vWiqX-19" target="4cnwyPSWlkKU3P2vWiqX-24">
          <mxGeometry relative="1" as="geometry" />
        </mxCell>
        <mxCell id="4cnwyPSWlkKU3P2vWiqX-30" value="是" style="edgeLabel;html=1;align=center;verticalAlign=middle;resizable=0;points=[];" vertex="1" connectable="0" parent="4cnwyPSWlkKU3P2vWiqX-27">
          <mxGeometry x="-0.6518" y="1" relative="1" as="geometry">
            <mxPoint as="offset" />
          </mxGeometry>
        </mxCell>
        <mxCell id="4cnwyPSWlkKU3P2vWiqX-28" style="edgeStyle=orthogonalEdgeStyle;rounded=0;orthogonalLoop=1;jettySize=auto;html=1;exitX=0.5;exitY=0;exitDx=0;exitDy=0;" edge="1" parent="1" source="4cnwyPSWlkKU3P2vWiqX-19">
          <mxGeometry relative="1" as="geometry">
            <mxPoint x="185" y="380" as="targetPoint" />
          </mxGeometry>
        </mxCell>
        <mxCell id="4cnwyPSWlkKU3P2vWiqX-29" value="否" style="edgeLabel;html=1;align=center;verticalAlign=middle;resizable=0;points=[];" vertex="1" connectable="0" parent="4cnwyPSWlkKU3P2vWiqX-28">
          <mxGeometry x="0.1867" y="-3" relative="1" as="geometry">
            <mxPoint as="offset" />
          </mxGeometry>
        </mxCell>
        <mxCell id="4cnwyPSWlkKU3P2vWiqX-19" value="用户选择更新" style="rhombus;whiteSpace=wrap;html=1;" vertex="1" parent="1">
          <mxGeometry x="120" y="530" width="130" height="60" as="geometry" />
        </mxCell>
        <mxCell id="4cnwyPSWlkKU3P2vWiqX-32" value="" style="edgeStyle=orthogonalEdgeStyle;rounded=0;orthogonalLoop=1;jettySize=auto;html=1;" edge="1" parent="1" source="4cnwyPSWlkKU3P2vWiqX-24" target="4cnwyPSWlkKU3P2vWiqX-31">
          <mxGeometry relative="1" as="geometry" />
        </mxCell>
        <mxCell id="4cnwyPSWlkKU3P2vWiqX-24" value="进入更新逻辑，展示更新弹窗" style="rounded=1;whiteSpace=wrap;html=1;" vertex="1" parent="1">
          <mxGeometry x="338.5" y="630" width="125" height="50" as="geometry" />
        </mxCell>
        <mxCell id="4cnwyPSWlkKU3P2vWiqX-36" style="edgeStyle=orthogonalEdgeStyle;rounded=0;orthogonalLoop=1;jettySize=auto;html=1;exitX=0.5;exitY=1;exitDx=0;exitDy=0;entryX=0.5;entryY=0;entryDx=0;entryDy=0;" edge="1" parent="1" source="4cnwyPSWlkKU3P2vWiqX-31" target="4cnwyPSWlkKU3P2vWiqX-34">
          <mxGeometry relative="1" as="geometry" />
        </mxCell>
        <mxCell id="4cnwyPSWlkKU3P2vWiqX-31" value="下载-&amp;gt;安装-&amp;gt;启动" style="rounded=1;whiteSpace=wrap;html=1;" vertex="1" parent="1">
          <mxGeometry x="341.5" y="700" width="119" height="40" as="geometry" />
        </mxCell>
        <mxCell id="4cnwyPSWlkKU3P2vWiqX-38" style="edgeStyle=orthogonalEdgeStyle;rounded=0;orthogonalLoop=1;jettySize=auto;html=1;exitX=1;exitY=0.5;exitDx=0;exitDy=0;entryX=0;entryY=0.5;entryDx=0;entryDy=0;" edge="1" parent="1" source="4cnwyPSWlkKU3P2vWiqX-34" target="4cnwyPSWlkKU3P2vWiqX-37">
          <mxGeometry relative="1" as="geometry" />
        </mxCell>
        <mxCell id="4cnwyPSWlkKU3P2vWiqX-34" value="静态资源更新判断" style="rounded=1;whiteSpace=wrap;html=1;" vertex="1" parent="1">
          <mxGeometry x="341.5" y="765" width="119" height="40" as="geometry" />
        </mxCell>
        <mxCell id="4cnwyPSWlkKU3P2vWiqX-41" value="" style="edgeStyle=orthogonalEdgeStyle;rounded=0;orthogonalLoop=1;jettySize=auto;html=1;" edge="1" parent="1" source="4cnwyPSWlkKU3P2vWiqX-37" target="4cnwyPSWlkKU3P2vWiqX-40">
          <mxGeometry relative="1" as="geometry" />
        </mxCell>
        <mxCell id="4cnwyPSWlkKU3P2vWiqX-42" value="否" style="edgeLabel;html=1;align=center;verticalAlign=middle;resizable=0;points=[];" vertex="1" connectable="0" parent="4cnwyPSWlkKU3P2vWiqX-41">
          <mxGeometry x="0.5333" y="3" relative="1" as="geometry">
            <mxPoint x="-3" as="offset" />
          </mxGeometry>
        </mxCell>
        <mxCell id="4cnwyPSWlkKU3P2vWiqX-37" value="development环境 ||&lt;br&gt;argv: --local-bundles" style="rhombus;whiteSpace=wrap;html=1;" vertex="1" parent="1">
          <mxGeometry x="600" y="160" width="170" height="80" as="geometry" />
        </mxCell>
        <mxCell id="4cnwyPSWlkKU3P2vWiqX-49" value="" style="edgeStyle=orthogonalEdgeStyle;rounded=0;orthogonalLoop=1;jettySize=auto;html=1;" edge="1" parent="1" source="4cnwyPSWlkKU3P2vWiqX-40" target="4cnwyPSWlkKU3P2vWiqX-47">
          <mxGeometry relative="1" as="geometry" />
        </mxCell>
        <mxCell id="4cnwyPSWlkKU3P2vWiqX-40" value="获取mainfest.json&lt;br&gt;(静态资源清单)" style="rounded=1;whiteSpace=wrap;html=1;" vertex="1" parent="1">
          <mxGeometry x="625.5" y="264" width="119" height="40" as="geometry" />
        </mxCell>
        <mxCell id="4cnwyPSWlkKU3P2vWiqX-52" value="" style="edgeStyle=orthogonalEdgeStyle;rounded=0;orthogonalLoop=1;jettySize=auto;html=1;" edge="1" parent="1" source="4cnwyPSWlkKU3P2vWiqX-47" target="4cnwyPSWlkKU3P2vWiqX-51">
          <mxGeometry relative="1" as="geometry" />
        </mxCell>
        <mxCell id="4cnwyPSWlkKU3P2vWiqX-53" value="否" style="edgeLabel;html=1;align=center;verticalAlign=middle;resizable=0;points=[];" vertex="1" connectable="0" parent="4cnwyPSWlkKU3P2vWiqX-52">
          <mxGeometry x="0.4074" relative="1" as="geometry">
            <mxPoint as="offset" />
          </mxGeometry>
        </mxCell>
        <mxCell id="4cnwyPSWlkKU3P2vWiqX-65" style="edgeStyle=orthogonalEdgeStyle;rounded=0;orthogonalLoop=1;jettySize=auto;html=1;exitX=1;exitY=0.5;exitDx=0;exitDy=0;entryX=1;entryY=0.5;entryDx=0;entryDy=0;" edge="1" parent="1" source="4cnwyPSWlkKU3P2vWiqX-47" target="4cnwyPSWlkKU3P2vWiqX-58">
          <mxGeometry relative="1" as="geometry" />
        </mxCell>
        <mxCell id="4cnwyPSWlkKU3P2vWiqX-47" value="mainfest.json清单中资源都存在&lt;br&gt;（即对比hash后缀）" style="rhombus;whiteSpace=wrap;html=1;" vertex="1" parent="1">
          <mxGeometry x="575" y="330" width="220" height="80" as="geometry" />
        </mxCell>
        <mxCell id="4cnwyPSWlkKU3P2vWiqX-55" value="" style="edgeStyle=orthogonalEdgeStyle;rounded=0;orthogonalLoop=1;jettySize=auto;html=1;" edge="1" parent="1" source="4cnwyPSWlkKU3P2vWiqX-51" target="4cnwyPSWlkKU3P2vWiqX-54">
          <mxGeometry relative="1" as="geometry" />
        </mxCell>
        <mxCell id="4cnwyPSWlkKU3P2vWiqX-51" value="展示更新程序窗口" style="rounded=1;whiteSpace=wrap;html=1;" vertex="1" parent="1">
          <mxGeometry x="625.5" y="440" width="119" height="40" as="geometry" />
        </mxCell>
        <mxCell id="4cnwyPSWlkKU3P2vWiqX-57" value="" style="edgeStyle=orthogonalEdgeStyle;rounded=0;orthogonalLoop=1;jettySize=auto;html=1;" edge="1" parent="1" source="4cnwyPSWlkKU3P2vWiqX-54" target="4cnwyPSWlkKU3P2vWiqX-56">
          <mxGeometry relative="1" as="geometry" />
        </mxCell>
        <mxCell id="4cnwyPSWlkKU3P2vWiqX-54" value="从oss fetch静态资源" style="rounded=1;whiteSpace=wrap;html=1;" vertex="1" parent="1">
          <mxGeometry x="625.5" y="510" width="119" height="40" as="geometry" />
        </mxCell>
        <mxCell id="4cnwyPSWlkKU3P2vWiqX-64" style="edgeStyle=orthogonalEdgeStyle;rounded=0;orthogonalLoop=1;jettySize=auto;html=1;exitX=0.5;exitY=1;exitDx=0;exitDy=0;entryX=0.5;entryY=0;entryDx=0;entryDy=0;" edge="1" parent="1" source="4cnwyPSWlkKU3P2vWiqX-56" target="4cnwyPSWlkKU3P2vWiqX-58">
          <mxGeometry relative="1" as="geometry" />
        </mxCell>
        <mxCell id="4cnwyPSWlkKU3P2vWiqX-56" value="关闭更新程序窗口" style="rounded=1;whiteSpace=wrap;html=1;" vertex="1" parent="1">
          <mxGeometry x="625.5" y="584.5" width="119" height="40" as="geometry" />
        </mxCell>
        <mxCell id="4cnwyPSWlkKU3P2vWiqX-62" value="" style="edgeStyle=orthogonalEdgeStyle;rounded=0;orthogonalLoop=1;jettySize=auto;html=1;" edge="1" parent="1" source="4cnwyPSWlkKU3P2vWiqX-58" target="4cnwyPSWlkKU3P2vWiqX-59">
          <mxGeometry relative="1" as="geometry" />
        </mxCell>
        <mxCell id="4cnwyPSWlkKU3P2vWiqX-58" value="load启动界面" style="rounded=0;whiteSpace=wrap;html=1;" vertex="1" parent="1">
          <mxGeometry x="632.25" y="660" width="105.5" height="40" as="geometry" />
        </mxCell>
        <mxCell id="4cnwyPSWlkKU3P2vWiqX-59" value="结束" style="ellipse;whiteSpace=wrap;html=1;" vertex="1" parent="1">
          <mxGeometry x="640" y="730" width="90" height="50" as="geometry" />
        </mxCell>
      </root>
    </mxGraphModel>
  </diagram>
</mxfile>
